<svg id="_5296499_fb_facebook_facebook_logo_icon" data-name="5296499_fb_facebook_facebook logo_icon" xmlns="http://www.w3.org/2000/svg" width="50" height="50" viewBox="0 0 50 50">
  <path id="Path_19" data-name="Path 19" d="M50,25A25,25,0,1,0,21.094,49.7V32.227H14.746V25h6.348V19.492c0-6.266,3.732-9.727,9.443-9.727a38.444,38.444,0,0,1,5.6.488v6.152H32.98c-3.106,0-4.074,1.927-4.074,3.9V25H35.84l-1.108,7.227H28.906V49.7A25.006,25.006,0,0,0,50,25Z" fill="#1877f2"/>
  <path id="Path_20" data-name="Path 20" d="M170.985,122.461l1.108-7.227H165.16v-4.69c0-1.977.968-3.9,4.074-3.9h3.152v-6.152a38.446,38.446,0,0,0-5.6-.488c-5.711,0-9.443,3.461-9.443,9.727v5.508H151v7.227h6.348v17.47a25.272,25.272,0,0,0,7.813,0v-17.47Z" transform="translate(-136.254 -90.234)" fill="#fff"/>
</svg>
