<svg xmlns="http://www.w3.org/2000/svg" width="50" height="50" viewBox="0 0 50 50">
  <g id="layer1" transform="translate(0 -552.362)">
    <rect id="rect2990-1" width="50" height="50" rx="25" transform="translate(0 552.362)" fill="#55acee"/>
    <path id="rect2989" d="M111.985,672.306a6.587,6.587,0,0,0-6.225,8.06,18.64,18.64,0,0,1-13.533-6.86,6.568,6.568,0,0,0,2.033,8.765,6.552,6.552,0,0,1-2.975-.822c0,.027,0,.057,0,.085a6.568,6.568,0,0,0,5.267,6.435,6.6,6.6,0,0,1-1.73.23,6.5,6.5,0,0,1-1.235-.117,6.569,6.569,0,0,0,6.13,4.56,13.16,13.16,0,0,1-8.15,2.81,13.3,13.3,0,0,1-1.567-.09,18.574,18.574,0,0,0,10.063,2.95c12.077,0,18.68-10,18.68-18.68,0-.284-.005-.571-.017-.852a13.3,13.3,0,0,0,3.275-3.4,13.058,13.058,0,0,1-3.77,1.035,6.578,6.578,0,0,0,2.888-3.633,13.15,13.15,0,0,1-4.17,1.6,6.557,6.557,0,0,0-4.792-2.073C112.1,672.306,112.041,672.3,111.985,672.306Z" transform="translate(-81 -107.949)" fill="#fff"/>
  </g>
</svg>
