<svg id="_3225180_app_logo_media_popular_social_icon" data-name="3225180_app_logo_media_popular_social_icon" xmlns="http://www.w3.org/2000/svg" width="50" height="50" viewBox="0 0 50 50">
  <path id="Path_14" data-name="Path 14" d="M25,50h0A25,25,0,0,1,0,25H0A25,25,0,0,1,25,0h0A25,25,0,0,1,50,25h0A25,25,0,0,1,25,50Z" fill="red"/>
  <path id="Path_15" data-name="Path 15" d="M200.51,269.655a4.164,4.164,0,0,0-2.935-2.955c-2.59-.7-12.97-.7-12.97-.7s-10.385,0-12.97.7a4.164,4.164,0,0,0-2.935,2.955,46.744,46.744,0,0,0-.005,16.09,4.164,4.164,0,0,0,2.935,2.955c2.59.7,12.97.7,12.97.7s10.385,0,12.97-.7a4.164,4.164,0,0,0,2.935-2.955,47.077,47.077,0,0,0,.005-16.09Zm-19.305,12.98v-9.87l8.675,4.935Z" transform="translate(-159.6 -252.7)" fill="#fff"/>
</svg>
